<svg width="48" height="48" viewBox="0 0 48 48" fill="none" xmlns="http://www.w3.org/2000/svg">
<g id="noun-front-end-3905507 4">
<path id="Vector" d="M7.76159 40.248H3.54719C3.24294 40.248 2.95114 40.1272 2.736 39.912C2.52086 39.6969 2.39999 39.4051 2.39999 39.1008V8.51524C2.39999 8.21099 2.52086 7.91919 2.736 7.70405C2.95114 7.48891 3.24294 7.36804 3.54719 7.36804H22.6368C22.7641 7.36804 22.8862 7.41861 22.9762 7.50863C23.0662 7.59865 23.1168 7.72074 23.1168 7.84804C23.1168 7.97535 23.0662 8.09744 22.9762 8.18745C22.8862 8.27747 22.7641 8.32804 22.6368 8.32804H3.54719C3.50429 8.32925 3.46348 8.34683 3.43313 8.37718C3.40279 8.40753 3.3852 8.44834 3.38399 8.49124V39.1008C3.38399 39.1441 3.40119 39.1856 3.43179 39.2162C3.4624 39.2468 3.50391 39.264 3.54719 39.264H7.76159C7.8889 39.264 8.01099 39.3146 8.10101 39.4046C8.19102 39.4947 8.24159 39.6167 8.24159 39.744C8.24159 39.8713 8.19102 39.9934 8.10101 40.0835C8.01099 40.1735 7.8889 40.224 7.76159 40.224V40.248Z" fill="#E2E8F0"/>
<path id="Vector_2" d="M41.712 40.248H19.4544C19.3271 40.248 19.205 40.1975 19.115 40.1075C19.025 40.0174 18.9744 39.8953 18.9744 39.768C18.9744 39.6407 19.025 39.5186 19.115 39.4286C19.205 39.3386 19.3271 39.288 19.4544 39.288H41.712C41.7557 39.2881 41.7978 39.271 41.8291 39.2405C41.8605 39.2101 41.8787 39.1686 41.88 39.1248V14.7888C41.88 14.6615 41.9306 14.5394 42.0206 14.4494C42.1106 14.3594 42.2327 14.3088 42.36 14.3088C42.4873 14.3088 42.6094 14.3594 42.6994 14.4494C42.7894 14.5394 42.84 14.6615 42.84 14.7888V39.1008C42.8388 39.4014 42.7202 39.6896 42.5094 39.904C42.2987 40.1183 42.0125 40.2418 41.712 40.248Z" fill="#E2E8F0"/>
<path id="Vector_3" d="M34.992 8.35197H27.6672C27.5399 8.35197 27.4178 8.3014 27.3278 8.21138C27.2378 8.12136 27.1872 7.99927 27.1872 7.87197C27.1872 7.74466 27.2378 7.62257 27.3278 7.53256C27.4178 7.44254 27.5399 7.39197 27.6672 7.39197H34.992C35.1193 7.39197 35.2414 7.44254 35.3314 7.53256C35.4214 7.62257 35.472 7.74466 35.472 7.87197C35.472 7.99927 35.4214 8.12136 35.3314 8.21138C35.2414 8.3014 35.1193 8.35197 34.992 8.35197Z" fill="#E2E8F0"/>
<path id="Vector_4" d="M36.8688 15.0721H2.90401C2.77288 15.0721 2.64713 15.02 2.55441 14.9272C2.4617 14.8345 2.40961 14.7088 2.40961 14.5777C2.40961 14.4465 2.4617 14.3208 2.55441 14.2281C2.64713 14.1353 2.77288 14.0833 2.90401 14.0833H36.8688C36.9999 14.0833 37.1257 14.1353 37.2184 14.2281C37.3111 14.3208 37.3632 14.4465 37.3632 14.5777C37.3632 14.7088 37.3111 14.8345 37.2184 14.9272C37.1257 15.02 36.9999 15.0721 36.8688 15.0721Z" fill="#E2E8F0"/>
<path id="Vector_5" d="M6.74879 12.0096C7.20211 12.0096 7.56959 11.6422 7.56959 11.1888C7.56959 10.7355 7.20211 10.368 6.74879 10.368C6.29548 10.368 5.92799 10.7355 5.92799 11.1888C5.92799 11.6422 6.29548 12.0096 6.74879 12.0096Z" fill="#E2E8F0"/>
<path id="Vector_6" d="M9.7776 12.0096C10.2309 12.0096 10.5984 11.6422 10.5984 11.1888C10.5984 10.7355 10.2309 10.368 9.7776 10.368C9.32429 10.368 8.9568 10.7355 8.9568 11.1888C8.9568 11.6422 9.32429 12.0096 9.7776 12.0096Z" fill="#E2E8F0"/>
<path id="Vector_7" d="M12.8112 12.0096C13.2645 12.0096 13.632 11.6422 13.632 11.1888C13.632 10.7355 13.2645 10.368 12.8112 10.368C12.3579 10.368 11.9904 10.7355 11.9904 11.1888C11.9904 11.6422 12.3579 12.0096 12.8112 12.0096Z" fill="#E2E8F0"/>
<path id="Vector_8" d="M12.8112 30.3408C12.6839 30.3408 12.5618 30.2903 12.4718 30.2003C12.3818 30.1102 12.3312 29.9881 12.3312 29.8608V21.624C12.3312 21.4967 12.3818 21.3746 12.4718 21.2846C12.5618 21.1946 12.6839 21.144 12.8112 21.144C12.9385 21.144 13.0606 21.1946 13.1506 21.2846C13.2406 21.3746 13.2912 21.4967 13.2912 21.624V29.8464C13.2931 29.9107 13.2821 29.9746 13.2589 30.0346C13.2356 30.0945 13.2006 30.1491 13.1558 30.1952C13.111 30.2413 13.0575 30.278 12.9983 30.303C12.9391 30.328 12.8755 30.3409 12.8112 30.3408Z" fill="#E2E8F0"/>
<path id="Vector_9" d="M10.1664 17.9952H5.36641C5.23592 17.9952 5.11078 17.9434 5.01851 17.8511C4.92624 17.7589 4.8744 17.6337 4.8744 17.5032C4.8744 17.3727 4.92624 17.2476 5.01851 17.1553C5.11078 17.0631 5.23592 17.0112 5.36641 17.0112H10.1664C10.2969 17.0112 10.422 17.0631 10.5143 17.1553C10.6066 17.2476 10.6584 17.3727 10.6584 17.5032C10.6584 17.6337 10.6066 17.7589 10.5143 17.8511C10.422 17.9434 10.2969 17.9952 10.1664 17.9952Z" fill="#E2E8F0"/>
<path id="Vector_10" d="M9.24 23.8512H5.3616C5.23048 23.8512 5.10473 23.7991 5.01201 23.7064C4.91929 23.6137 4.8672 23.4879 4.8672 23.3568C4.8672 23.2257 4.91929 23.1 5.01201 23.0072C5.10473 22.9145 5.23048 22.8624 5.3616 22.8624H9.24C9.37113 22.8624 9.49688 22.9145 9.5896 23.0072C9.68231 23.1 9.7344 23.2257 9.7344 23.3568C9.7344 23.4879 9.68231 23.6137 9.5896 23.7064C9.49688 23.7991 9.37113 23.8512 9.24 23.8512Z" fill="#E2E8F0"/>
<path id="Vector_11" d="M10.1664 26.6544H5.36641C5.23592 26.6544 5.11078 26.6026 5.01851 26.5103C4.92624 26.418 4.8744 26.2929 4.8744 26.1624C4.8744 26.0319 4.92624 25.9068 5.01851 25.8145C5.11078 25.7222 5.23592 25.6704 5.36641 25.6704H10.1664C10.2969 25.6704 10.422 25.7222 10.5143 25.8145C10.6066 25.9068 10.6584 26.0319 10.6584 26.1624C10.6584 26.2929 10.6066 26.418 10.5143 26.5103C10.422 26.6026 10.2969 26.6544 10.1664 26.6544Z" fill="#E2E8F0"/>
<path id="Vector_12" d="M7.7616 29.8224H5.3616C5.23048 29.8224 5.10473 29.7703 5.01201 29.6776C4.91929 29.5849 4.8672 29.4591 4.8672 29.328C4.8672 29.1969 4.91929 29.0711 5.01201 28.9784C5.10473 28.8857 5.23048 28.8336 5.3616 28.8336H7.7616C7.89273 28.8336 8.01848 28.8857 8.1112 28.9784C8.20391 29.0711 8.256 29.1969 8.256 29.328C8.256 29.4591 8.20391 29.5849 8.1112 29.6776C8.01848 29.7703 7.89273 29.8224 7.7616 29.8224Z" fill="#E2E8F0"/>
<path id="Vector_13" d="M7.7616 20.9232H5.3616C5.23111 20.9232 5.10597 20.8714 5.0137 20.7791C4.92143 20.6868 4.8696 20.5617 4.8696 20.4312C4.8696 20.3007 4.92143 20.1756 5.0137 20.0833C5.10597 19.991 5.23111 19.9392 5.3616 19.9392H7.7616C7.89208 19.9392 8.01723 19.991 8.10949 20.0833C8.20176 20.1756 8.2536 20.3007 8.2536 20.4312C8.2536 20.5617 8.20176 20.6868 8.10949 20.7791C8.01723 20.8714 7.89208 20.9232 7.7616 20.9232Z" fill="#E2E8F0"/>
<path id="Vector_14" d="M35.7168 19.9824H17.9568C17.8263 19.9824 17.7012 19.9306 17.6089 19.8383C17.5166 19.746 17.4648 19.6209 17.4648 19.4904C17.4648 19.3599 17.5166 19.2348 17.6089 19.1425C17.7012 19.0502 17.8263 18.9984 17.9568 18.9984H35.7168C35.8473 18.9984 35.9724 19.0502 36.0647 19.1425C36.157 19.2348 36.2088 19.3599 36.2088 19.4904C36.2088 19.6209 36.157 19.746 36.0647 19.8383C35.9724 19.9306 35.8473 19.9824 35.7168 19.9824Z" fill="#E2E8F0"/>
<path id="Vector_15" d="M24.816 23.8128H17.9424C17.8151 23.8128 17.693 23.7622 17.603 23.6722C17.513 23.5822 17.4624 23.4601 17.4624 23.3328C17.4624 23.2055 17.513 23.0834 17.603 22.9934C17.693 22.9034 17.8151 22.8528 17.9424 22.8528H24.816C24.9433 22.8528 25.0654 22.9034 25.1554 22.9934C25.2454 23.0834 25.296 23.2055 25.296 23.3328C25.296 23.4601 25.2454 23.5822 25.1554 23.6722C25.0654 23.7622 24.9433 23.8128 24.816 23.8128Z" fill="#E2E8F0"/>
<path id="Vector_16" d="M31.68 23.8128H27.4992C27.3719 23.8128 27.2498 23.7622 27.1598 23.6722C27.0698 23.5822 27.0192 23.4601 27.0192 23.3328C27.0192 23.2055 27.0698 23.0834 27.1598 22.9934C27.2498 22.9034 27.3719 22.8528 27.4992 22.8528H31.68C31.8073 22.8528 31.9294 22.9034 32.0194 22.9934C32.1094 23.0834 32.16 23.2055 32.16 23.3328C32.16 23.4601 32.1094 23.5822 32.0194 23.6722C31.9294 23.7622 31.8073 23.8128 31.68 23.8128Z" fill="#E2E8F0"/>
<path id="Vector_17" d="M37.056 27.9073H17.9424C17.8113 27.9073 17.6855 27.8552 17.5928 27.7625C17.5001 27.6697 17.448 27.544 17.448 27.4129C17.448 27.2817 17.5001 27.156 17.5928 27.0633C17.6855 26.9705 17.8113 26.9185 17.9424 26.9185H37.056C37.1871 26.9185 37.3129 26.9705 37.4056 27.0633C37.4983 27.156 37.5504 27.2817 37.5504 27.4129C37.5504 27.544 37.4983 27.6697 37.4056 27.7625C37.3129 27.8552 37.1871 27.9073 37.056 27.9073Z" fill="#E2E8F0"/>
<path id="Vector_18" d="M27.4992 31.7328H17.9424C17.8151 31.7328 17.693 31.6823 17.603 31.5922C17.513 31.5022 17.4624 31.3801 17.4624 31.2528C17.4624 31.1255 17.513 31.0034 17.603 30.9134C17.693 30.8234 17.8151 30.7728 17.9424 30.7728H27.4992C27.6265 30.7728 27.7486 30.8234 27.8386 30.9134C27.9286 31.0034 27.9792 31.1255 27.9792 31.2528C27.9792 31.3801 27.9286 31.5022 27.8386 31.5922C27.7486 31.6823 27.6265 31.7328 27.4992 31.7328Z" fill="#E2E8F0"/>
<path id="Vector_19" d="M13.632 43.68C12.001 43.6789 10.4194 43.1204 9.14939 42.0971C7.87938 41.0738 6.99728 39.6471 6.64935 38.0537C6.30142 36.4602 6.50857 34.7957 7.23644 33.3362C7.96431 31.8766 9.16918 30.7097 10.6513 30.0289C12.1334 29.3481 13.8036 29.1943 15.3851 29.593C16.9666 29.9917 18.3643 30.919 19.3465 32.2211C20.3287 33.5232 20.8363 35.1218 20.7852 36.752C20.7341 38.3822 20.1274 39.946 19.0656 41.184C19.0245 41.234 18.9737 41.2752 18.9162 41.3051C18.8588 41.335 18.7958 41.353 18.7313 41.3579C18.6667 41.3628 18.6018 41.3546 18.5405 41.3338C18.4791 41.313 18.4226 41.28 18.3744 41.2368C18.3236 41.1956 18.2818 41.1446 18.2515 41.0867C18.2211 41.0288 18.2029 40.9653 18.198 40.9002C18.193 40.835 18.2014 40.7695 18.2227 40.7077C18.244 40.6459 18.2776 40.5891 18.3216 40.5408C19.2502 39.466 19.7798 38.1039 19.821 36.6841C19.8622 35.2643 19.4125 33.8738 18.5478 32.747C17.683 31.6202 16.4561 30.8261 15.074 30.4986C13.6919 30.1711 12.2392 30.3303 10.9607 30.9492C9.68234 31.5682 8.65651 32.6092 8.05627 33.8965C7.45603 35.1838 7.31811 36.6387 7.66576 38.0159C8.01341 39.3931 8.82536 40.6082 9.96468 41.4564C11.104 42.3046 12.501 42.7339 13.92 42.672C14.8706 42.6309 15.7982 42.3662 16.6272 41.8992C16.6836 41.8677 16.7457 41.8476 16.8099 41.84C16.8741 41.8325 16.9391 41.8377 17.0013 41.8553C17.0634 41.8729 17.1216 41.9026 17.1723 41.9427C17.223 41.9827 17.2653 42.0324 17.2968 42.0888C17.3283 42.1452 17.3484 42.2073 17.3559 42.2715C17.3635 42.3356 17.3583 42.4007 17.3407 42.4628C17.3231 42.525 17.2934 42.5831 17.2533 42.6338C17.2133 42.6845 17.1636 42.7269 17.1072 42.7584C16.1531 43.3043 15.0848 43.6198 13.9872 43.68C13.8672 43.68 13.7472 43.68 13.632 43.68Z" fill="#E2E8F0"/>
<path id="Vector_20" d="M10.7712 36C11.1504 36 11.3328 35.7456 11.3328 35.2704V33.96C11.311 33.7989 11.3246 33.635 11.3729 33.4798C11.4212 33.3245 11.5028 33.1818 11.6122 33.0614C11.7215 32.9411 11.8558 32.8462 12.0058 32.7834C12.1557 32.7205 12.3176 32.6913 12.48 32.6976H13.1664V33.6H12.8208C12.5232 33.6 12.3792 33.8064 12.3792 34.176V35.4288C12.3792 36.0384 12.0624 36.3888 11.6544 36.456C11.8841 36.5037 12.0871 36.6368 12.2225 36.8283C12.3579 37.0198 12.4156 37.2556 12.384 37.488V38.7408C12.384 39.1056 12.528 39.3168 12.8256 39.3168H13.1712V40.2H12.48C11.76 40.2 11.3424 39.72 11.3424 38.9376V37.6272C11.3424 37.1472 11.1504 36.9024 10.7808 36.9024H10.7232V36H10.7712Z" fill="#E2E8F0"/>
<path id="Vector_21" d="M16.5552 36.9024H16.4976C16.128 36.9024 15.936 37.152 15.936 37.6272V38.9376C15.936 39.7152 15.5184 40.2 14.7984 40.2H14.0976V39.3168H14.4384C14.7408 39.3168 14.8848 39.1056 14.8848 38.7408V37.488C14.8594 37.2601 14.9195 37.0308 15.0534 36.8446C15.1872 36.6584 15.3854 36.5285 15.6096 36.48C15.2016 36.432 14.8848 36.0624 14.8848 35.4528V34.1616C14.8848 33.792 14.7408 33.5856 14.4384 33.5856H14.0976V32.6976H14.784C14.9468 32.6905 15.1092 32.7192 15.2598 32.7817C15.4103 32.8443 15.5452 32.9391 15.6551 33.0595C15.765 33.1799 15.8471 33.3229 15.8956 33.4785C15.9441 33.6341 15.9579 33.7985 15.936 33.96V35.2704C15.936 35.7504 16.1184 35.9904 16.4976 36H16.5552V36.9024Z" fill="#E2E8F0"/>
<path id="Vector_22" d="M39.792 15.9456C38.6433 15.9456 37.5204 15.605 36.5652 14.9668C35.6101 14.3286 34.8657 13.4215 34.4261 12.3602C33.9865 11.2989 33.8715 10.1311 34.0956 9.00451C34.3197 7.87787 34.8729 6.84298 35.6851 6.03072C36.4974 5.21845 37.5323 4.66529 38.6589 4.44119C39.7856 4.21709 40.9533 4.33211 42.0146 4.7717C43.0759 5.21129 43.983 5.95572 44.6212 6.91084C45.2594 7.86596 45.6 8.98888 45.6 10.1376C45.5987 11.6776 44.9864 13.1541 43.8975 14.2431C42.8085 15.332 41.332 15.9443 39.792 15.9456ZM39.792 5.31839C38.8426 5.31839 37.9146 5.59991 37.1253 6.12734C36.3359 6.65477 35.7207 7.40443 35.3574 8.28151C34.9941 9.1586 34.899 10.1237 35.0842 11.0548C35.2694 11.9859 35.7266 12.8412 36.3979 13.5125C37.0692 14.1838 37.9245 14.641 38.8556 14.8262C39.7867 15.0114 40.7518 14.9163 41.6289 14.553C42.506 14.1897 43.2556 13.5745 43.7831 12.7851C44.3105 11.9958 44.592 11.0677 44.592 10.1184C44.592 8.84535 44.0863 7.62445 43.1861 6.72428C42.2859 5.82411 41.065 5.31839 39.792 5.31839Z" fill="#E2E8F0"/>
<path id="Vector_23" d="M41.6064 12.48C41.5047 12.4857 41.4039 12.459 41.3185 12.4036C41.233 12.3483 41.1674 12.2672 41.131 12.1721C41.0947 12.077 41.0895 11.9728 41.1163 11.8745C41.1431 11.7763 41.2004 11.6891 41.28 11.6256L42.6144 10.296L41.28 8.96642C41.1871 8.87349 41.1349 8.74745 41.1349 8.61602C41.1349 8.4846 41.1871 8.35856 41.28 8.26562C41.3729 8.17269 41.499 8.12048 41.6304 8.12048C41.7618 8.12048 41.8879 8.17269 41.9808 8.26562L43.4736 9.76322C43.5419 9.83374 43.5953 9.91722 43.6307 10.0087C43.6662 10.1002 43.6829 10.1979 43.68 10.296C43.6805 10.3951 43.6612 10.4932 43.6233 10.5847C43.5854 10.6762 43.5296 10.7592 43.4592 10.8288L41.9664 12.3264C41.9195 12.3745 41.8635 12.4129 41.8018 12.4392C41.74 12.4656 41.6736 12.4795 41.6064 12.48Z" fill="#E2E8F0"/>
<path id="Vector_24" d="M37.9824 12.4512C37.9173 12.4522 37.8526 12.44 37.7924 12.4152C37.7322 12.3905 37.6776 12.3537 37.632 12.3072L36.1392 10.8096C36.0684 10.7403 36.0123 10.6574 35.9743 10.5658C35.9364 10.4742 35.9174 10.3759 35.9184 10.2768C35.9179 10.1778 35.9372 10.0796 35.9751 9.98814C36.013 9.89665 36.0688 9.81365 36.1392 9.744L37.632 8.2512C37.6777 8.2055 37.732 8.16925 37.7917 8.14452C37.8514 8.11979 37.9154 8.10706 37.98 8.10706C38.0446 8.10706 38.1086 8.11979 38.1683 8.14452C38.2281 8.16925 38.2823 8.2055 38.328 8.2512C38.3737 8.2969 38.41 8.35116 38.4347 8.41087C38.4594 8.47058 38.4722 8.53457 38.4722 8.5992C38.4722 8.66383 38.4594 8.72783 38.4347 8.78754C38.41 8.84725 38.3737 8.9015 38.328 8.9472L36.9984 10.2768L38.328 11.6112C38.3752 11.656 38.4128 11.71 38.4385 11.7698C38.4642 11.8297 38.4774 11.8941 38.4774 11.9592C38.4774 12.0243 38.4642 12.0887 38.4385 12.1486C38.4128 12.2084 38.3752 12.2624 38.328 12.3072C38.283 12.3531 38.2292 12.3896 38.1698 12.4143C38.1105 12.439 38.0467 12.4516 37.9824 12.4512Z" fill="#E2E8F0"/>
<path id="Vector_25" d="M39.2064 12.8016C39.1633 12.8063 39.1199 12.8063 39.0768 12.8016C39.013 12.7862 38.9529 12.7578 38.9005 12.7183C38.848 12.6787 38.8042 12.6289 38.7718 12.5717C38.7395 12.5146 38.7191 12.4514 38.7121 12.3861C38.7051 12.3207 38.7116 12.2547 38.7312 12.192L40.0416 7.44479C40.057 7.38093 40.0854 7.32092 40.1249 7.26846C40.1645 7.21601 40.2143 7.17223 40.2715 7.13983C40.3286 7.10743 40.3918 7.08711 40.4571 7.08012C40.5224 7.07313 40.5885 7.07962 40.6512 7.09919C40.7729 7.1319 40.8768 7.21114 40.9405 7.3198C41.0043 7.42846 41.0228 7.55782 40.992 7.67999L39.6816 12.4272C39.6574 12.5346 39.5969 12.6305 39.5104 12.6987C39.4239 12.7668 39.3165 12.8032 39.2064 12.8016Z" fill="#E2E8F0"/>
<path id="Vector_26" d="M25.7904 8.35197H24.6384C24.5111 8.35197 24.389 8.3014 24.299 8.21138C24.209 8.12136 24.1584 7.99927 24.1584 7.87197C24.1584 7.74466 24.209 7.62257 24.299 7.53256C24.389 7.44254 24.5111 7.39197 24.6384 7.39197H25.7904C25.9177 7.39197 26.0398 7.44254 26.1298 7.53256C26.2198 7.62257 26.2704 7.74466 26.2704 7.87197C26.2704 7.99927 26.2198 8.12136 26.1298 8.21138C26.0398 8.3014 25.9177 8.35197 25.7904 8.35197Z" fill="#E2E8F0"/>
<path id="Vector_27" d="M12.8112 19.9825C12.6839 19.9825 12.5618 19.9319 12.4718 19.8419C12.3818 19.7519 12.3312 19.6298 12.3312 19.5025V14.5777C12.3312 14.4504 12.3818 14.3283 12.4718 14.2382C12.5618 14.1482 12.6839 14.0977 12.8112 14.0977C12.9385 14.0977 13.0606 14.1482 13.1506 14.2382C13.2406 14.3283 13.2912 14.4504 13.2912 14.5777V19.4881C13.2931 19.5523 13.2821 19.6163 13.2589 19.6762C13.2356 19.7361 13.2006 19.7907 13.1558 19.8368C13.111 19.8829 13.0575 19.9196 12.9983 19.9446C12.9391 19.9696 12.8755 19.9825 12.8112 19.9825Z" fill="#E2E8F0"/>
</g>
</svg>
