<svg width="25" height="24" viewBox="0 0 25 24" fill="none" xmlns="http://www.w3.org/2000/svg">
<g id="&#240;&#159;&#166;&#134; icon &#34;Instagram&#34;">
<path id="Vector" d="M12.5024 5.84808C9.09716 5.84808 6.35048 8.59477 6.35048 12C6.35048 15.4053 9.09716 18.1519 12.5024 18.1519C15.9076 18.1519 18.6543 15.4053 18.6543 12C18.6543 8.59477 15.9076 5.84808 12.5024 5.84808ZM12.5024 15.9996C10.3018 15.9996 8.50285 14.2059 8.50285 12C8.50285 9.7941 10.2965 8.00045 12.5024 8.00045C14.7083 8.00045 16.502 9.7941 16.502 12C16.502 14.2059 14.703 15.9996 12.5024 15.9996ZM20.3409 5.59644C20.3409 6.39421 19.6984 7.03135 18.906 7.03135C18.1082 7.03135 17.4711 6.38885 17.4711 5.59644C17.4711 4.80402 18.1136 4.16153 18.906 4.16153C19.6984 4.16153 20.3409 4.80402 20.3409 5.59644ZM24.4154 7.05277C24.3244 5.13063 23.8853 3.42801 22.4772 2.02522C21.0744 0.622429 19.3718 0.183388 17.4496 0.0870135C15.4686 -0.0254238 9.53085 -0.0254238 7.54981 0.0870135C5.63302 0.178034 3.9304 0.617075 2.52226 2.01986C1.11411 3.42265 0.680428 5.12527 0.584053 7.04742C0.471616 9.02845 0.471616 14.9662 0.584053 16.9472C0.675074 18.8694 1.11411 20.572 2.52226 21.9748C3.9304 23.3776 5.62767 23.8166 7.54981 23.913C9.53085 24.0254 15.4686 24.0254 17.4496 23.913C19.3718 23.822 21.0744 23.3829 22.4772 21.9748C23.88 20.572 24.319 18.8694 24.4154 16.9472C24.5278 14.9662 24.5278 9.03381 24.4154 7.05277ZM21.8561 19.0728C21.4385 20.1223 20.63 20.9307 19.5752 21.3537C17.9958 21.9802 14.2479 21.8356 12.5024 21.8356C10.7569 21.8356 7.00368 21.9748 5.42956 21.3537C4.38015 20.9361 3.57167 20.1276 3.14869 19.0728C2.52226 17.4934 2.66682 13.7455 2.66682 12C2.66682 10.2546 2.52761 6.50129 3.14869 4.92717C3.56632 3.87776 4.37479 3.06928 5.42956 2.6463C7.00904 2.01986 10.7569 2.16443 12.5024 2.16443C14.2479 2.16443 18.0011 2.02522 19.5752 2.6463C20.6247 3.06392 21.4331 3.8724 21.8561 4.92717C22.4825 6.50665 22.338 10.2546 22.338 12C22.338 13.7455 22.4825 17.4987 21.8561 19.0728Z" fill="#E2E8F0"/>
</g>
</svg>
