<svg width="48" height="48" viewBox="0 0 48 48" fill="none" xmlns="http://www.w3.org/2000/svg">
<g id="application-mobile-svgrepo-com 1" clip-path="url(#clip0_16_1081)">
<path id="Vector" d="M40.5 10.5H34.5V16.5H40.5V10.5Z" fill="#E2E8F0"/>
<path id="Vector_2" d="M40.5 19.5H34.5V25.5H40.5V19.5Z" fill="#E2E8F0"/>
<path id="Vector_3" d="M31.5 10.5H25.5V16.5H31.5V10.5Z" fill="#E2E8F0"/>
<path id="Vector_4" d="M31.5 19.5H25.5V25.5H31.5V19.5Z" fill="#E2E8F0"/>
<path id="Vector_5" d="M21.75 39C22.9926 39 24 37.9926 24 36.75C24 35.5074 22.9926 34.5 21.75 34.5C20.5074 34.5 19.5 35.5074 19.5 36.75C19.5 37.9926 20.5074 39 21.75 39Z" fill="#E2E8F0"/>
<path id="Vector_6" d="M31.5 45H12C11.2046 44.9991 10.4421 44.6827 9.87969 44.1203C9.31728 43.5579 9.00091 42.7954 9 42V6C9.00091 5.20463 9.31728 4.4421 9.87969 3.87969C10.4421 3.31728 11.2046 3.00091 12 3H31.5V6H12V42H31.5V30H34.5V42C34.4991 42.7954 34.1827 43.5579 33.6203 44.1203C33.0579 44.6827 32.2954 44.9991 31.5 45Z" fill="#E2E8F0"/>
</g>
<defs>
<clipPath id="clip0_16_1081">
<rect width="48" height="48" fill="white"/>
</clipPath>
</defs>
</svg>
