<svg xmlns="http://www.w3.org/2000/svg" data-name="Layer 1" viewBox="0 0 100 100" x="0px" y="0px"><path d="M16.17,83.85H7.39A2.39,2.39,0,0,1,5,81.46V17.74a2.39,2.39,0,0,1,2.39-2.39H47.16a1,1,0,1,1,0,2H7.39a.35.35,0,0,0-.34.34V81.46a.34.34,0,0,0,.34.34h8.78a1,1,0,1,1,0,2Z"/><path d="M86.9,83.85H40.53a1,1,0,1,1,0-2H86.9a.35.35,0,0,0,.35-.34V30.81a1,1,0,1,1,2,0V81.46A2.4,2.4,0,0,1,86.9,83.85Z"/><path d="M72.9,17.4H57.64a1,1,0,0,1,0-2H72.9a1,1,0,1,1,0,2Z"/><path d="M76.81,31.4H6.05a1,1,0,0,1,0-2.06H76.81a1,1,0,0,1,0,2.06Z"/><circle cx="14.06" cy="23.31" r="1.71"/><circle cx="20.37" cy="23.31" r="1.71"/><circle cx="26.69" cy="23.31" r="1.71"/><path d="M26.69,63.21a1,1,0,0,1-1-1V45.05a1,1,0,1,1,2,0V62.18A1,1,0,0,1,26.69,63.21Z"/><path d="M21.18,37.49h-10a1,1,0,1,1,0-2.05h10a1,1,0,0,1,0,2.05Z"/><path d="M19.25,49.69H11.17a1,1,0,1,1,0-2.06h8.08a1,1,0,1,1,0,2.06Z"/><path d="M21.18,55.53h-10a1,1,0,1,1,0-2.05h10a1,1,0,0,1,0,2.05Z"/><path d="M16.17,62.13h-5a1,1,0,1,1,0-2.06h5a1,1,0,0,1,0,2.06Z"/><path d="M16.17,43.59h-5a1,1,0,1,1,0-2.05h5a1,1,0,1,1,0,2.05Z"/><path d="M74.41,41.63h-37a1,1,0,0,1,0-2.05h37a1,1,0,1,1,0,2.05Z"/><path d="M51.7,49.61H37.38a1,1,0,0,1,0-2H51.7a1,1,0,0,1,0,2Z"/><path d="M66,49.61H57.29a1,1,0,1,1,0-2H66a1,1,0,1,1,0,2Z"/><path d="M77.2,58.14H37.38a1,1,0,0,1,0-2.06H77.2a1,1,0,0,1,0,2.06Z"/><path d="M57.29,66.11H37.38a1,1,0,0,1,0-2H57.29a1,1,0,1,1,0,2Z"/><path d="M28.4,91a14.9,14.9,0,1,1,11.32-5.2,1,1,0,0,1-1.44.11,1,1,0,0,1-.11-1.45A12.86,12.86,0,1,0,29,88.9a12.6,12.6,0,0,0,5.64-1.61,1,1,0,1,1,1,1.79A14.71,14.71,0,0,1,29.14,91C28.89,91,28.64,91,28.4,91Z"/><path d="M22.44,75c.79,0,1.17-.53,1.17-1.52V70.75A2.32,2.32,0,0,1,26,68.12h1.43V70h-.72c-.62,0-.92.43-.92,1.2v2.61c0,1.27-.66,2-1.51,2.14v0A1.93,1.93,0,0,1,25.8,78.1v2.61c0,.76.3,1.2.92,1.2h.72v1.84H26c-1.5,0-2.37-1-2.37-2.63V78.39c0-1-.4-1.51-1.17-1.51h-.12V75Z"/><path d="M34.49,76.88h-.12c-.77,0-1.17.52-1.17,1.51v2.73c0,1.62-.87,2.63-2.37,2.63H29.37V81.91h.71c.63,0,.93-.44.93-1.2V78.1A1.93,1.93,0,0,1,32.52,76v0c-.85-.1-1.51-.87-1.51-2.14V71.17c0-.77-.3-1.2-.93-1.2h-.71V68.12H30.8a2.32,2.32,0,0,1,2.4,2.63v2.73c0,1,.38,1.5,1.17,1.52h.12Z"/><path d="M82.9,33.22A12.1,12.1,0,1,1,95,21.12,12.11,12.11,0,0,1,82.9,33.22Zm0-22.14a10,10,0,1,0,10,10A10,10,0,0,0,82.9,11.08Z"/><path d="M86.68,26A1,1,0,0,1,86,24.22l2.78-2.77L86,18.68a1,1,0,0,1,1.46-1.46l3.11,3.12A1.53,1.53,0,0,1,91,21.45a1.55,1.55,0,0,1-.46,1.11l-3.11,3.12A1.06,1.06,0,0,1,86.68,26Zm2.39-4.19Z"/><path d="M79.13,25.94a1,1,0,0,1-.73-.3l-3.11-3.12a1.53,1.53,0,0,1-.46-1.11,1.55,1.55,0,0,1,.46-1.11l3.11-3.11a1,1,0,1,1,1.45,1.45l-2.77,2.77,2.77,2.78a1,1,0,0,1,0,1.45A1,1,0,0,1,79.13,25.94Zm-2.39-4.19Zm0-.68Z"/><path d="M81.68,26.67a1.24,1.24,0,0,1-.27,0,1,1,0,0,1-.72-1.27l2.73-9.89a1,1,0,0,1,1.27-.72A1,1,0,0,1,85.4,16l-2.73,9.89A1,1,0,0,1,81.68,26.67Z"/><path d="M53.73,17.4h-2.4a1,1,0,0,1,0-2h2.4a1,1,0,0,1,0,2Z"/><path d="M26.69,41.63a1,1,0,0,1-1-1V30.37a1,1,0,1,1,2,0V40.6A1,1,0,0,1,26.69,41.63Z"/></svg>